<?xml version="1.0" encoding="UTF-8"?>
<!DOCTYPE svg PUBLIC "-//W3C//DTD SVG 1.1//EN" "http://www.w3.org/Graphics/SVG/1.1/DTD/svg11.dtd">
<svg xmlns="http://www.w3.org/2000/svg" version="1.1" width="58px" height="52px" style="shape-rendering:geometricPrecision; text-rendering:geometricPrecision; image-rendering:optimizeQuality; fill-rule:evenodd; clip-rule:evenodd" xmlns:xlink="http://www.w3.org/1999/xlink">
<rect x="0" y="0" width="58" height="52" fill="#ebf3fe"/>
<g><path fill="#ebf3fe" stroke="#ebf3fe" stroke-width="0.5" d="M 0,0 C 19.33,0 38.67,0 58,0 C 58,17.33 58,34.67 58,52 C 38.67,52 19.33,52 0,52 C 0,34.67 0,17.33 0,0 Z M 7.34,26.99 C 8.34,38.38 14.39,45.43 25.48,48.13 C 35.24,49.36 42.77,45.83 48.07,37.56 C 51.89,30.42 51.99,23.23 48.34,16 C 43.62,8.13 36.67,4.39 27.5,4.77 C 18.31,5.84 12.01,10.68 8.59,19.29 C 7.78,21.79 7.36,24.36 7.34,26.99 Z M 13.1,27 C 13.39,19.17 17.2,13.88 24.53,11.13 C 29.75,9.77 34.55,10.64 38.93,13.73 C 42.12,16.26 44.11,19.52 44.92,23.5 C 45.91,32.22 42.4,38.33 34.36,41.83 C 28.3,43.55 22.9,42.34 18.17,38.19 C 15.05,35.11 13.36,31.38 13.1,27 Z M 19.21,21.05 C 19.65,24.45 21.58,25.89 24.98,25.37 C 27.75,24.36 28.75,22.4 27.96,19.5 C 26.89,17.13 25.05,16.24 22.47,16.81 C 20.45,17.48 19.36,18.89 19.21,21.05 Z M 30.05,21.98 C 31.53,25.37 33.96,26.27 37.35,24.69 C 38.92,23.32 39.43,21.62 38.87,19.57 C 37.85,17.17 36.05,16.25 33.47,16.8 C 31.02,17.63 29.88,19.36 30.05,21.98 Z M 19.2,32 C 19.79,35.64 21.9,37.01 25.52,36.11 C 27.84,34.94 28.67,33.07 27.99,30.49 C 26.93,28.09 25.09,27.18 22.47,27.77 C 20.4,28.4 19.31,29.81 19.2,32 Z M 30.07,32.98 C 31.24,35.96 33.37,37 36.48,36.08 C 38.75,34.93 39.57,33.1 38.93,30.59 C 37.91,28.15 36.09,27.19 33.46,27.73 C 30.96,28.57 29.83,30.32 30.07,32.98 Z"/></g>
<g><path fill="#ee393e" stroke="#ee393e" stroke-width="0.5" d="M 7.34,26.99 C 7.58,17.59 11.89,10.78 20.27,6.55 C 27,3.81 33.57,4.13 39.99,7.5 C 48.05,12.63 51.69,19.96 50.9,29.5 C 49.1,38.96 43.6,45.09 34.38,47.88 C 28.36,49.2 22.73,48.24 17.48,45.03 C 11.16,40.67 7.78,34.66 7.34,26.99 Z M 13.1,27 C 13.71,34 17.24,38.89 23.68,41.67 C 29.43,43.51 34.69,42.58 39.46,38.9 C 44.07,34.76 45.88,29.63 44.92,23.5 C 43.6,17.51 40.07,13.43 34.34,11.25 C 29.98,10 25.77,10.36 21.71,12.33 C 16.08,15.6 13.21,20.49 13.1,27 Z M 19.21,21.05 C 20.07,16.98 22.45,15.74 26.35,17.31 C 28.17,18.99 28.63,21.01 27.73,23.36 C 26.59,25.02 25,25.73 22.98,25.48 C 20.6,24.97 19.34,23.49 19.21,21.05 Z M 30.05,21.98 C 30.39,17.31 32.77,15.75 37.22,17.3 C 39.06,18.97 39.52,20.98 38.59,23.32 C 36.72,25.64 34.46,26.09 31.8,24.68 C 30.98,23.93 30.4,23.03 30.05,21.98 Z M 19.2,32 C 20.07,27.95 22.46,26.7 26.37,28.26 C 27.76,29.33 28.35,30.74 28.14,32.51 C 27.79,35.22 26.24,36.49 23.48,36.32 C 20.81,36.15 19.38,34.71 19.2,32 Z M 30.07,32.98 C 29.97,29.22 31.79,27.45 35.53,27.68 C 37.24,27.97 38.38,28.94 38.93,30.59 C 39.57,33.1 38.75,34.93 36.48,36.08 C 33.37,37 31.24,35.96 30.07,32.98 Z"/></g>
</svg>
