<?xml version="1.0" encoding="UTF-8"?>
<!DOCTYPE svg PUBLIC "-//W3C//DTD SVG 1.1//EN" "http://www.w3.org/Graphics/SVG/1.1/DTD/svg11.dtd">
<svg xmlns="http://www.w3.org/2000/svg" version="1.1" width="66px" height="60px" style="shape-rendering:geometricPrecision; text-rendering:geometricPrecision; image-rendering:optimizeQuality; fill-rule:evenodd; clip-rule:evenodd" xmlns:xlink="http://www.w3.org/1999/xlink">
<rect x="0" y="0" width="66" height="60" fill="#fdfdf8"/>
<g><path fill="#fdfdf8" stroke="#fdfdf8" stroke-width="0.5" d="M 0,0 C 22,0 44,0 66,0 C 66,20 66,40 66,60 C 44,60 22,60 0,60 C 0,40 0,20 0,0 Z M 13.1,27 C 12.78,27.5 12.4,27.93 11.96,28.32 C 11.25,27.9 10.64,27.99 10.12,28.58 C 9.26,32.05 10.25,34.86 13.09,37.02 C 12.78,37.52 12.4,37.94 11.94,38.3 C 11.24,37.9 10.64,37.99 10.13,38.58 C 9.97,39.89 9.93,41.2 10.01,42.51 C 9.99,43.07 10.2,43.51 10.66,43.83 C 12.24,44.06 13.83,44.08 15.42,43.87 C 16.05,43.37 16.15,42.77 15.72,42.06 C 16.18,41.66 16.63,41.25 17.07,40.84 C 17.76,41.88 18.66,42.64 19.79,43.12 C 20.14,43.78 20.7,44.07 21.47,44.01 C 22.78,44.06 24.09,44.02 25.39,43.87 C 26.01,43.31 26.23,42.6 26.07,41.75 C 26.3,41.53 26.54,41.31 26.79,41.1 C 27.73,41.95 28.77,42.67 29.9,43.24 C 30.22,43.85 30.74,44.11 31.46,44.02 C 32.78,44.08 34.1,44.03 35.41,43.88 C 36.01,43.35 36.14,42.72 35.8,41.97 C 36.08,41.58 36.36,41.21 36.65,40.83 C 37.41,41.64 38.33,42.02 39.41,41.98 C 39.57,41.8 39.73,41.61 39.89,41.43 C 40.05,39.79 40.05,38.15 39.92,36.51 C 39.49,35.39 38.83,34.43 37.92,33.61 C 38.72,33.37 39.39,32.96 39.93,32.36 C 40,30.74 40.03,29.11 40.02,27.49 C 40.01,26.85 39.87,26.26 39.58,25.69 C 37.39,23.37 35.16,21.08 32.88,18.83 C 32.47,18.44 31.99,18.16 31.44,17.98 C 30.83,17.82 30.38,18.01 30.11,18.57 C 29.87,20.39 29.93,22.2 30.28,23.99 C 30.17,24.56 30.08,25.12 29.99,25.69 C 29.66,25.7 29.39,25.58 29.16,25.34 C 27.08,23.09 24.95,20.9 22.76,18.75 C 22.39,18.37 21.95,18.11 21.43,17.97 C 20.46,17.98 19.98,18.48 19.98,19.48 C 19.96,20.79 20,22.1 20.1,23.41 C 20.26,24.06 20.6,24.6 21.13,25.02 C 20.86,25.35 20.54,25.64 20.16,25.86 C 17.59,23.6 15.12,21.23 12.76,18.75 C 12.39,18.37 11.95,18.11 11.43,17.97 C 10.46,17.98 9.98,18.48 9.98,19.48 C 9.94,20.8 9.99,22.12 10.13,23.44 C 10.81,24.87 11.8,26.05 13.1,27 Z M 41.23,32 C 41.24,35.16 41.24,38.32 41.24,41.48 C 41.09,43.14 41.83,43.99 43.47,44.02 C 48.1,44.09 52.72,44.02 57.33,43.81 C 58.18,42.92 58.2,42.01 57.39,41.06 C 55.47,40.4 53.73,39.42 52.18,38.11 C 49.37,35.33 46.57,32.53 43.78,29.73 C 43.2,29.26 42.56,29.16 41.87,29.43 C 41.35,30.2 41.13,31.06 41.23,32 Z M 44.96,39 C 45.72,37.8 46.6,37.71 47.59,38.74 C 47.61,39.62 47.21,40.21 46.38,40.49 C 45.43,40.49 44.95,39.99 44.96,39 Z"/></g>
<g><path fill="#fce6d7" d="M 20.77,35.29 C 21.41,35.34 21.94,35.61 22.37,36.11 C 23.71,37.46 25.04,38.81 26.37,40.16 C 26.59,40.44 26.73,40.76 26.79,41.1 C 26.54,41.31 26.3,41.53 26.07,41.75 C 24.05,40.15 22.06,38.48 20.08,36.76 C 20.09,36.45 20.1,36.14 20.11,35.83 C 20.41,35.75 20.63,35.57 20.77,35.29 Z"/></g>
<g><path fill="#f9a67c" d="M 20.22,34.08 C 20.67,34.35 20.85,34.76 20.77,35.29 C 20.41,34.97 20.22,34.56 20.22,34.08 Z"/></g>
<g><path fill="#f9bd2d" stroke="#f9bd2d" stroke-width="0.5" d="M 39.93,32.36 C 39.18,32.3 38.49,32.05 37.86,31.62 C 35.3,29.11 32.78,26.57 30.28,23.99 C 29.93,22.2 29.87,20.39 30.11,18.57 C 30.38,18.01 30.83,17.82 31.44,17.98 C 31.99,18.16 32.47,18.44 32.88,18.83 C 35.16,21.08 37.39,23.37 39.58,25.69 C 39.87,26.26 40.01,26.85 40.02,27.49 C 40.03,29.11 40,30.74 39.93,32.36 Z M 30.25,26.84 C 32.78,29.16 35.34,31.42 37.92,33.61 C 38.83,34.43 39.49,35.39 39.92,36.51 C 40.05,38.15 40.05,39.79 39.89,41.43 C 39.73,41.61 39.57,41.8 39.41,41.98 C 38.33,42.02 37.41,41.64 36.65,40.83 C 34.43,38.27 32.14,35.75 29.78,33.29 C 29.95,31.14 30.1,28.99 30.25,26.84 Z M 30.32,36.78 C 32.18,38.45 34.01,40.18 35.8,41.97 C 36.14,42.72 36.01,43.35 35.41,43.88 C 34.1,44.03 32.78,44.08 31.46,44.02 C 30.74,44.11 30.22,43.85 29.9,43.24 C 29.91,41.08 30.05,38.92 30.32,36.78 Z"/></g>
<g><path fill="#f54e00" stroke="#f54e00" stroke-width="0.5" d="M 29.99,25.69 C 30.08,26.07 30.16,26.46 30.25,26.84 C 30.1,28.99 29.95,31.14 29.78,33.29 C 26.8,30.64 23.92,27.88 21.13,25.02 C 20.6,24.6 20.26,24.06 20.1,23.41 C 20,22.1 19.96,20.79 19.98,19.48 C 19.98,18.48 20.46,17.98 21.43,17.97 C 21.95,18.11 22.39,18.37 22.76,18.75 C 24.95,20.9 27.08,23.09 29.16,25.34 C 29.39,25.58 29.66,25.7 29.99,25.69 Z M 20.08,26.84 C 20.87,27.2 21.57,27.7 22.17,28.33 C 25,31.05 27.71,33.86 30.32,36.78 C 30.05,38.92 29.91,41.08 29.9,43.24 C 28.77,42.67 27.73,41.95 26.79,41.1 C 26.73,40.76 26.59,40.44 26.37,40.16 C 25.04,38.81 23.71,37.46 22.37,36.11 C 21.94,35.61 21.41,35.34 20.77,35.29 C 20.85,34.76 20.67,34.35 20.22,34.08 C 20.12,33.75 20.02,33.43 19.92,33.1 C 19.97,31.02 20.03,28.93 20.08,26.84 Z M 20.08,36.76 C 22.06,38.48 24.05,40.15 26.07,41.75 C 26.23,42.6 26.01,43.31 25.39,43.87 C 24.09,44.02 22.78,44.06 21.47,44.01 C 20.7,44.07 20.14,43.78 19.79,43.12 C 19.98,41.01 20.08,38.89 20.08,36.76 Z"/></g>
<g><path fill="#1d4aff" stroke="#1d4aff" stroke-width="0.5" d="M 20.16,25.86 C 20.14,26.19 20.11,26.51 20.08,26.84 C 20.03,28.93 19.97,31.02 19.92,33.1 C 19.54,33.04 19.2,32.88 18.91,32.63 C 17.08,30.65 15.14,28.77 13.1,27 C 11.8,26.05 10.81,24.87 10.13,23.44 C 9.99,22.12 9.94,20.8 9.98,19.48 C 9.98,18.48 10.46,17.98 11.43,17.97 C 11.95,18.11 12.39,18.37 12.76,18.75 C 15.12,21.23 17.59,23.6 20.16,25.86 Z M 11.96,28.32 C 14.18,30.5 16.39,32.69 18.6,34.89 C 19.03,35.33 19.53,35.64 20.11,35.83 C 20.1,36.14 20.09,36.45 20.08,36.76 C 20.08,38.89 19.98,41.01 19.79,43.12 C 18.66,42.64 17.76,41.88 17.07,40.84 C 15.8,39.51 14.47,38.23 13.09,37.02 C 10.25,34.86 9.26,32.05 10.12,28.58 C 10.64,27.99 11.25,27.9 11.96,28.32 Z M 11.94,38.3 C 13.34,39.41 14.6,40.67 15.72,42.06 C 16.15,42.77 16.05,43.37 15.42,43.87 C 13.83,44.08 12.24,44.06 10.66,43.83 C 10.2,43.51 9.99,43.07 10.01,42.51 C 9.93,41.2 9.97,39.89 10.13,38.58 C 10.64,37.99 11.24,37.9 11.94,38.3 Z"/></g>
<g><path fill="#030303" stroke="#030303" stroke-width="0.5" d="M 41.23,32 C 41.13,31.06 41.35,30.2 41.87,29.43 C 42.56,29.16 43.2,29.26 43.78,29.73 C 46.57,32.53 49.37,35.33 52.18,38.11 C 53.73,39.42 55.47,40.4 57.39,41.06 C 58.2,42.01 58.18,42.92 57.33,43.81 C 52.72,44.02 48.1,44.09 43.47,44.02 C 41.83,43.99 41.09,43.14 41.24,41.48 C 41.24,38.32 41.24,35.16 41.23,32 Z M 44.96,39 C 45.23,40.64 46,40.94 47.27,39.91 C 47.83,38.37 47.29,37.78 45.64,38.12 C 45.27,38.31 45.04,38.6 44.96,39 Z"/></g>
<g><path fill="#f3ede5" d="M 30.28,23.99 C 32.78,26.57 35.3,29.11 37.86,31.62 C 38.49,32.05 39.18,32.3 39.93,32.36 C 39.39,32.96 38.72,33.37 37.92,33.61 C 35.34,31.42 32.78,29.16 30.25,26.84 C 30.16,26.46 30.08,26.07 29.99,25.69 C 30.08,25.12 30.17,24.56 30.28,23.99 Z M 21.13,25.02 C 23.92,27.88 26.8,30.64 29.78,33.29 C 32.14,35.75 34.43,38.27 36.65,40.83 C 36.36,41.21 36.08,41.58 35.8,41.97 C 34.01,40.18 32.18,38.45 30.32,36.78 C 27.71,33.86 25,31.05 22.17,28.33 C 21.57,27.7 20.87,27.2 20.08,26.84 C 20.11,26.51 20.14,26.19 20.16,25.86 C 20.54,25.64 20.86,25.35 21.13,25.02 Z M 13.1,27 C 15.14,28.77 17.08,30.65 18.91,32.63 C 19.2,32.88 19.54,33.04 19.92,33.1 C 20.02,33.43 20.12,33.75 20.22,34.08 C 20.22,34.56 20.41,34.97 20.77,35.29 C 20.63,35.57 20.41,35.75 20.11,35.83 C 19.53,35.64 19.03,35.33 18.6,34.89 C 16.39,32.69 14.18,30.5 11.96,28.32 C 12.4,27.93 12.78,27.5 13.1,27 Z M 13.09,37.02 C 14.47,38.23 15.8,39.51 17.07,40.84 C 16.63,41.25 16.18,41.66 15.72,42.06 C 14.6,40.67 13.34,39.41 11.94,38.3 C 12.4,37.94 12.78,37.52 13.09,37.02 Z"/></g>
</svg>
