<?xml version="1.0" encoding="UTF-8"?>
<!DOCTYPE svg PUBLIC "-//W3C//DTD SVG 1.1//EN" "http://www.w3.org/Graphics/SVG/1.1/DTD/svg11.dtd">
<svg xmlns="http://www.w3.org/2000/svg" version="1.1" width="289px" height="278px" style="shape-rendering:geometricPrecision; text-rendering:geometricPrecision; image-rendering:optimizeQuality; fill-rule:evenodd; clip-rule:evenodd" xmlns:xlink="http://www.w3.org/1999/xlink">
<rect x="0" y="0" width="289" height="278" fill="#fffeff"/>
<g><path fill="#fffeff" stroke="#fffeff" stroke-width="0.5" d="M 0,0 C 96.33,0 192.67,0 289,0 C 289,92.67 289,185.33 289,278 C 192.67,278 96.33,278 0,278 C 0,185.33 0,92.67 0,0 Z M 83.02,119.3 C 83.22,119.96 83.7,120.23 84.44,120.11 C 96.14,120.18 107.84,120.12 119.54,119.93 C 120.14,119.87 120.59,120.11 120.9,120.62 C 121.12,121.22 121.24,121.84 121.25,122.49 C 121.36,132.83 121.4,143.17 121.37,153.52 C 121.41,155.74 121.26,157.94 120.91,160.13 C 110.45,160.32 99.99,160.35 89.52,160.24 C 88.78,160.44 88.2,160.89 87.78,161.57 C 85.35,161.79 82.9,161.89 80.45,161.86 C 79.73,161.95 79.23,162.32 78.94,162.97 C 76.19,163.71 73.42,164.43 70.63,165.13 C 65.3,167.55 61,171.19 57.71,176.05 C 57.01,177.65 56.19,179.17 55.22,180.62 C 53.52,184.49 52.11,188.47 50.98,192.54 C 49.83,197.1 48.75,201.67 47.74,206.26 C 47.32,207.17 46.93,208.08 46.56,209 C 46.33,211.8 45.61,214.45 44.39,216.97 C 44.23,219.7 43.53,222.28 42.32,224.72 C 41.46,228.75 40.48,232.75 39.39,236.71 C 38.45,238.62 37.72,240.61 37.19,242.67 C 36.18,244.59 34.9,246.3 33.36,247.81 C 31.39,249.06 29.27,249.98 27.01,250.57 C 24.17,250.73 21.34,250.77 18.5,250.71 C 17.54,250.71 16.61,250.87 15.71,251.18 C 15.3,251.52 15.1,251.97 15.11,252.51 C 14.76,255.52 14.94,258.5 15.65,261.43 C 16.93,262.86 18.54,263.46 20.49,263.22 C 34.16,263.13 47.83,263.11 61.5,263.15 C 65.02,262.91 68.51,262.51 71.99,261.95 C 80.29,260.29 86.1,255.55 89.42,247.73 C 90.82,244.43 92.03,241.07 93.03,237.63 C 98,219.03 103.14,200.48 108.47,181.99 C 110.04,176.65 112.51,171.78 115.87,167.37 C 116.79,166.35 117.77,165.4 118.81,164.51 C 120.23,165.02 121.42,164.7 122.38,163.56 C 122.69,163.54 123.01,163.53 123.33,163.51 C 136.76,163.85 150.19,163.89 163.62,163.63 C 164.96,164.27 166.3,164.93 167.64,165.61 C 168.16,165.76 168.67,165.73 169.17,165.52 C 171.13,167.53 172.82,169.76 174.22,172.19 C 175.74,175.19 177.01,178.29 178.04,181.48 C 183.41,200.24 188.56,219.06 193.5,237.93 C 194.7,243.3 196.75,248.32 199.64,252.98 C 202.69,257.26 206.75,260.1 211.81,261.51 C 216.34,262.35 220.9,262.9 225.5,263.16 C 239.17,263.11 252.84,263.13 266.51,263.22 C 267.9,263.27 269.13,262.86 270.21,262 C 270.69,261.24 270.99,260.41 271.1,259.51 C 271.39,257.18 271.34,254.87 270.93,252.56 C 270.91,252.01 270.68,251.57 270.24,251.25 C 269.35,250.97 268.43,250.79 267.49,250.73 C 265.18,250.72 262.86,250.7 260.54,250.67 C 255.48,250.17 251.78,247.67 249.42,243.18 C 247.91,239.76 246.69,236.23 245.78,232.61 C 241.88,218.22 237.99,203.84 234.1,189.46 C 233.33,186.93 232.45,184.45 231.44,182 C 227.06,170.87 218.94,164.5 207.1,162.87 C 206.76,162.27 206.24,161.94 205.54,161.88 C 204.09,161.85 202.65,161.77 201.22,161.61 C 200.8,160.94 200.21,160.5 199.47,160.31 C 188.79,160.31 178.1,160.3 167.42,160.27 C 166.78,160.35 166.29,160.14 165.93,159.62 C 166.11,146.84 166.04,134.06 165.71,121.29 C 165.88,121.01 166.05,120.73 166.21,120.45 C 170.28,120.75 174.38,120.87 178.51,120.84 C 185.18,120.79 191.86,120.78 198.53,120.8 C 199.86,120.62 201.19,120.4 202.5,120.14 C 203.86,120.19 205.2,120.27 206.54,120.38 C 205.8,120.23 205.32,119.81 205.08,119.11 C 207.76,118.79 210.4,118.25 212.99,117.48 C 219.78,115.45 225,111.39 228.66,105.31 C 231.12,101 233.02,96.45 234.35,91.66 C 238.21,77.27 242.09,62.88 245.97,48.49 C 246.81,44.9 248.04,41.44 249.64,38.11 C 251.78,34.14 255.08,31.89 259.54,31.34 C 262.53,31.31 265.51,31.21 268.49,31.04 C 269.61,30.94 270.36,30.37 270.77,29.35 C 271.58,26.15 271.57,22.96 270.73,19.78 C 270.42,19.31 270,19.02 269.45,18.91 C 268.48,18.68 267.5,18.55 266.51,18.52 C 250.84,18.53 235.17,18.63 219.5,18.82 C 215.84,19.32 212.26,20.15 208.76,21.32 C 207.39,21.9 206.1,22.61 204.88,23.46 C 200.17,27.22 196.99,32.01 195.33,37.83 C 190.35,55.92 185.42,74.02 180.54,92.13 C 179.47,95.94 178.26,99.7 176.92,103.41 C 175.08,108.74 172.15,113.37 168.11,117.3 C 166.14,116.6 164.77,117.2 163.98,119.09 C 162.83,119.34 161.67,119.47 160.49,119.47 C 147.95,119.41 135.41,119.46 122.88,119.59 C 122.84,119.06 122.56,118.69 122.05,118.47 C 120.82,117.58 119.51,116.83 118.11,116.22 C 116.34,114.99 114.88,113.46 113.72,111.63 C 111.94,108.67 110.43,105.58 109.2,102.35 C 107.56,97.8 106.13,93.19 104.92,88.51 C 104.62,86.84 104.3,85.19 103.97,83.53 C 102.88,79.67 101.72,75.83 100.48,72.01 C 100.25,69.31 99.54,66.75 98.35,64.32 C 98.2,61.75 97.55,59.32 96.4,57.03 C 95.42,52.76 94.38,48.52 93.28,44.28 C 92.14,40.26 90.66,36.37 88.85,32.59 C 88.02,31.39 87.27,30.14 86.58,28.85 C 85.59,27.83 84.7,26.73 83.9,25.55 C 81.7,23.59 79.25,22.03 76.54,20.88 C 73.22,20.04 69.88,19.35 66.5,18.81 C 50.17,18.61 33.83,18.57 17.49,18.68 C 16.54,18.62 15.77,18.93 15.17,19.6 C 15.07,22.56 15.07,25.52 15.17,28.48 C 15.1,30.11 15.86,31 17.46,31.16 C 21.51,31.07 25.54,31.29 29.55,31.83 C 32.89,33.12 35.35,35.37 36.96,38.57 C 37.53,40.56 38.28,42.47 39.21,44.32 C 39.56,45.96 39.9,47.6 40.25,49.24 C 41.38,51.48 42.03,53.85 42.19,56.36 C 43.42,58.87 44.14,61.52 44.35,64.32 C 45.56,66.74 46.24,69.32 46.4,72.03 C 47.67,74.78 48.44,77.66 48.72,80.68 C 49.22,81.94 49.69,83.2 50.13,84.48 C 50.91,88.19 51.85,91.85 52.94,95.48 C 54.01,97.3 54.79,99.24 55.3,101.29 C 56.2,102.47 56.91,103.75 57.44,105.14 C 58.6,106.92 59.91,108.59 61.35,110.15 C 62.98,111.87 64.77,113.4 66.71,114.75 C 68.68,115.35 70.54,116.18 72.3,117.24 C 75.08,117.64 77.81,118.28 80.48,119.15 C 81.32,119.28 82.17,119.33 83.02,119.3 Z"/></g>
<g><path fill="#8261ff" d="M 71.99,261.95 C 68.51,262.51 65.02,262.91 61.5,263.15 C 47.83,263.11 34.16,263.13 20.49,263.22 C 18.54,263.46 16.93,262.86 15.65,261.43 C 16.44,260.99 16.92,260.33 17.09,259.45 C 16.9,257.48 16.84,255.5 16.94,253.53 C 16.97,252.97 17.23,252.57 17.71,252.32 C 22.01,252.24 26.28,252.28 30.54,252.41 C 29.85,252.95 29.09,253.38 28.27,253.69 C 25.38,253.65 22.49,253.78 19.62,254.08 C 18.74,255.05 18.47,256.19 18.8,257.5 C 18.94,258.46 19.48,259.04 20.43,259.22 C 38.06,259.11 55.69,259.18 73.32,259.41 C 73.73,259.58 73.86,259.86 73.72,260.27 C 72.94,260.62 72.36,261.18 71.99,261.95 Z M 270.21,262 C 269.13,262.86 267.9,263.27 266.51,263.22 C 252.84,263.13 239.17,263.11 225.5,263.16 C 220.9,262.9 216.34,262.35 211.81,261.51 C 212.22,260.86 212.56,260.18 212.83,259.47 C 213.06,259.4 213.29,259.33 213.53,259.26 C 230.85,259.19 248.18,259.18 265.5,259.23 C 266.73,258.94 267.85,258.44 268.88,257.74 C 269.49,255.54 268.7,254.22 266.5,253.77 C 264.52,253.81 262.55,253.82 260.57,253.8 C 258.93,253.01 257.2,252.58 255.39,252.52 C 255.73,252.29 256.11,252.16 256.54,252.13 C 260.46,252.21 264.38,252.3 268.3,252.41 C 268.83,252.99 269.06,253.7 268.99,254.52 C 268.96,256.17 268.93,257.82 268.89,259.47 C 269.15,260.4 269.59,261.24 270.21,262 Z"/></g>
<g><path fill="#e5deff" d="M 168.11,117.3 C 167.27,117.71 167.07,118.3 167.51,119.06 C 168.14,119.32 168.79,119.43 169.47,119.39 C 181.34,119.46 193.21,119.37 205.08,119.11 C 205.32,119.81 205.8,120.23 206.54,120.38 C 205.2,120.27 203.86,120.19 202.5,120.14 C 201.19,120.4 199.86,120.62 198.53,120.8 C 191.86,120.78 185.18,120.79 178.51,120.84 C 174.38,120.87 170.28,120.75 166.21,120.45 C 166.05,120.73 165.88,121.01 165.71,121.29 C 166.04,134.06 166.11,146.84 165.93,159.62 C 166.29,160.14 166.78,160.35 167.42,160.27 C 178.1,160.3 188.79,160.31 199.47,160.31 C 200.21,160.5 200.8,160.94 201.22,161.61 C 202.65,161.77 204.09,161.85 205.54,161.88 C 206.24,161.94 206.76,162.27 207.1,162.87 C 194.16,162.55 181.22,162.52 168.28,162.78 C 167.8,162.8 167.44,163.01 167.22,163.42 C 167.8,164.18 168.45,164.88 169.17,165.52 C 168.67,165.73 168.16,165.76 167.64,165.61 C 166.3,164.93 164.96,164.27 163.62,163.63 C 150.19,163.89 136.76,163.85 123.33,163.51 C 123.01,163.53 122.69,163.54 122.38,163.56 C 121.42,164.7 120.23,165.02 118.81,164.51 C 120.04,163.82 120,163.25 118.67,162.8 C 118.02,162.66 117.35,162.59 116.67,162.59 C 104.09,162.52 91.52,162.65 78.94,162.97 C 79.23,162.32 79.73,161.95 80.45,161.86 C 82.9,161.89 85.35,161.79 87.78,161.57 C 88.2,160.89 88.78,160.44 89.52,160.24 C 99.99,160.35 110.45,160.32 120.91,160.13 C 121.12,161.01 121.36,161.87 121.63,162.69 C 135.97,162.85 150.29,162.79 164.59,162.5 C 164.41,162.21 164.16,162.01 163.84,161.87 C 164.37,160.81 164.59,159.69 164.52,158.5 C 164.48,146.33 164.5,134.17 164.56,122.01 C 164.49,121.01 164.3,120.04 163.98,119.09 C 164.77,117.2 166.14,116.6 168.11,117.3 Z"/></g>
<g><path fill="#c3b3ff" d="M 118.11,116.22 C 119.51,116.83 120.82,117.58 122.05,118.47 C 122.56,118.69 122.84,119.06 122.88,119.59 C 122.3,120.47 122.05,121.44 122.1,122.49 C 122.14,135.16 122.15,147.83 122.11,160.5 C 122.03,161.05 122.21,161.49 122.65,161.82 C 136.38,161.97 150.11,161.99 163.84,161.87 C 164.16,162.01 164.41,162.21 164.59,162.5 C 150.29,162.79 135.97,162.85 121.63,162.69 C 121.36,161.87 121.12,161.01 120.91,160.13 C 121.26,157.94 121.41,155.74 121.37,153.52 C 121.4,143.17 121.36,132.83 121.25,122.49 C 121.24,121.84 121.12,121.22 120.9,120.62 C 120.59,120.11 120.14,119.87 119.54,119.93 C 107.84,120.12 96.14,120.18 84.44,120.11 C 83.7,120.23 83.22,119.96 83.02,119.3 C 93.85,119.33 104.68,119.36 115.52,119.37 C 116.53,119.35 117.54,119.29 118.54,119.17 C 119.03,119.16 119.41,118.97 119.71,118.61 C 119.24,118.15 118.75,117.69 118.25,117.25 C 118.06,116.93 118.02,116.59 118.11,116.22 Z"/></g>
<g><path fill="#7855ff" stroke="#7855ff" stroke-width="0.5" d="M 118.11,116.22 C 118.02,116.59 118.06,116.93 118.25,117.25 C 118.75,117.69 119.24,118.15 119.71,118.61 C 119.41,118.97 119.03,119.16 118.54,119.17 C 117.54,119.29 116.53,119.35 115.52,119.37 C 104.68,119.36 93.85,119.33 83.02,119.3 C 82.17,119.33 81.32,119.28 80.48,119.15 C 77.81,118.28 75.08,117.64 72.3,117.24 C 70.54,116.18 68.68,115.35 66.71,114.75 C 64.77,113.4 62.98,111.87 61.35,110.15 C 59.91,108.59 58.6,106.92 57.44,105.14 C 56.91,103.75 56.2,102.47 55.3,101.29 C 54.79,99.24 54.01,97.3 52.94,95.48 C 51.85,91.85 50.91,88.19 50.13,84.48 C 49.69,83.2 49.22,81.94 48.72,80.68 C 48.44,77.66 47.67,74.78 46.4,72.03 C 46.24,69.32 45.56,66.74 44.35,64.32 C 44.14,61.52 43.42,58.87 42.19,56.36 C 42.03,53.85 41.38,51.48 40.25,49.24 C 39.9,47.6 39.56,45.96 39.21,44.32 C 38.28,42.47 37.53,40.56 36.96,38.57 C 35.35,35.37 32.89,33.12 29.55,31.83 C 25.54,31.29 21.51,31.07 17.46,31.16 C 15.86,31 15.1,30.11 15.17,28.48 C 15.07,25.52 15.07,22.56 15.17,19.6 C 15.77,18.93 16.54,18.62 17.49,18.68 C 33.83,18.57 50.17,18.61 66.5,18.81 C 69.88,19.35 73.22,20.04 76.54,20.88 C 79.25,22.03 81.7,23.59 83.9,25.55 C 84.7,26.73 85.59,27.83 86.58,28.85 C 87.27,30.14 88.02,31.39 88.85,32.59 C 90.66,36.37 92.14,40.26 93.28,44.28 C 94.38,48.52 95.42,52.76 96.4,57.03 C 97.55,59.32 98.2,61.75 98.35,64.32 C 99.54,66.75 100.25,69.31 100.48,72.01 C 101.72,75.83 102.88,79.67 103.97,83.53 C 104.3,85.19 104.62,86.84 104.92,88.51 C 106.13,93.19 107.56,97.8 109.2,102.35 C 110.43,105.58 111.94,108.67 113.72,111.63 C 114.88,113.46 116.34,114.99 118.11,116.22 Z M 205.08,119.11 C 193.21,119.37 181.34,119.46 169.47,119.39 C 168.79,119.43 168.14,119.32 167.51,119.06 C 167.07,118.3 167.27,117.71 168.11,117.3 C 172.15,113.37 175.08,108.74 176.92,103.41 C 178.26,99.7 179.47,95.94 180.54,92.13 C 185.42,74.02 190.35,55.92 195.33,37.83 C 196.99,32.01 200.17,27.22 204.88,23.46 C 206.1,22.61 207.39,21.9 208.76,21.32 C 212.26,20.15 215.84,19.32 219.5,18.82 C 235.17,18.63 250.84,18.53 266.51,18.52 C 267.5,18.55 268.48,18.68 269.45,18.91 C 270,19.02 270.42,19.31 270.73,19.78 C 271.57,22.96 271.58,26.15 270.77,29.35 C 270.36,30.37 269.61,30.94 268.49,31.04 C 265.51,31.21 262.53,31.31 259.54,31.34 C 255.08,31.89 251.78,34.14 249.64,38.11 C 248.04,41.44 246.81,44.9 245.97,48.49 C 242.09,62.88 238.21,77.27 234.35,91.66 C 233.02,96.45 231.12,101 228.66,105.31 C 225,111.39 219.78,115.45 212.99,117.48 C 210.4,118.25 207.76,118.79 205.08,119.11 Z M 163.98,119.09 C 164.3,120.04 164.49,121.01 164.56,122.01 C 164.5,134.17 164.48,146.33 164.52,158.5 C 164.59,159.69 164.37,160.81 163.84,161.87 C 150.11,161.99 136.38,161.97 122.65,161.82 C 122.21,161.49 122.03,161.05 122.11,160.5 C 122.15,147.83 122.14,135.16 122.1,122.49 C 122.05,121.44 122.3,120.47 122.88,119.59 C 135.41,119.46 147.95,119.41 160.49,119.47 C 161.67,119.47 162.83,119.34 163.98,119.09 Z M 118.81,164.51 C 117.77,165.4 116.79,166.35 115.87,167.37 C 112.51,171.78 110.04,176.65 108.47,181.99 C 103.14,200.48 98,219.03 93.03,237.63 C 92.03,241.07 90.82,244.43 89.42,247.73 C 86.1,255.55 80.29,260.29 71.99,261.95 C 72.36,261.18 72.94,260.62 73.72,260.27 C 73.86,259.86 73.73,259.58 73.32,259.41 C 55.69,259.18 38.06,259.11 20.43,259.22 C 19.48,259.04 18.94,258.46 18.8,257.5 C 18.47,256.19 18.74,255.05 19.62,254.08 C 22.49,253.78 25.38,253.65 28.27,253.69 C 29.09,253.38 29.85,252.95 30.54,252.41 C 26.28,252.28 22.01,252.24 17.71,252.32 C 17.23,252.57 16.97,252.97 16.94,253.53 C 16.84,255.5 16.9,257.48 17.09,259.45 C 16.92,260.33 16.44,260.99 15.65,261.43 C 14.94,258.5 14.76,255.52 15.11,252.51 C 15.1,251.97 15.3,251.52 15.71,251.18 C 16.61,250.87 17.54,250.71 18.5,250.71 C 21.34,250.77 24.17,250.73 27.01,250.57 C 29.27,249.98 31.39,249.06 33.36,247.81 C 34.9,246.3 36.18,244.59 37.19,242.67 C 37.72,240.61 38.45,238.62 39.39,236.71 C 40.48,232.75 41.46,228.75 42.32,224.72 C 43.53,222.28 44.23,219.7 44.39,216.97 C 45.61,214.45 46.33,211.8 46.56,209 C 46.93,208.08 47.32,207.17 47.74,206.26 C 48.75,201.67 49.83,197.1 50.98,192.54 C 52.11,188.47 53.52,184.49 55.22,180.62 C 56.19,179.17 57.01,177.65 57.71,176.05 C 61,171.19 65.3,167.55 70.63,165.13 C 73.42,164.43 76.19,163.71 78.94,162.97 C 91.52,162.65 104.09,162.52 116.67,162.59 C 117.35,162.59 118.02,162.66 118.67,162.8 C 120,163.25 120.04,163.82 118.81,164.51 Z M 207.1,162.87 C 218.94,164.5 227.06,170.87 231.44,182 C 232.45,184.45 233.33,186.93 234.1,189.46 C 237.99,203.84 241.88,218.22 245.78,232.61 C 246.69,236.23 247.91,239.76 249.42,243.18 C 251.78,247.67 255.48,250.17 260.54,250.67 C 262.86,250.7 265.18,250.72 267.49,250.73 C 268.43,250.79 269.35,250.97 270.24,251.25 C 270.68,251.57 270.91,252.01 270.93,252.56 C 271.34,254.87 271.39,257.18 271.1,259.51 C 270.99,260.41 270.69,261.24 270.21,262 C 269.59,261.24 269.15,260.4 268.89,259.47 C 268.93,257.82 268.96,256.17 268.99,254.52 C 269.06,253.7 268.83,252.99 268.3,252.41 C 264.38,252.3 260.46,252.21 256.54,252.13 C 256.11,252.16 255.73,252.29 255.39,252.52 C 257.2,252.58 258.93,253.01 260.57,253.8 C 262.55,253.82 264.52,253.81 266.5,253.77 C 268.7,254.22 269.49,255.54 268.88,257.74 C 267.85,258.44 266.73,258.94 265.5,259.23 C 248.18,259.18 230.85,259.19 213.53,259.26 C 213.29,259.33 213.06,259.4 212.83,259.47 C 212.56,260.18 212.22,260.86 211.81,261.51 C 206.75,260.1 202.69,257.26 199.64,252.98 C 196.75,248.32 194.7,243.3 193.5,237.93 C 188.56,219.06 183.41,200.24 178.04,181.48 C 177.01,178.29 175.74,175.19 174.22,172.19 C 172.82,169.76 171.13,167.53 169.17,165.52 C 168.45,164.88 167.8,164.18 167.22,163.42 C 167.44,163.01 167.8,162.8 168.28,162.78 C 181.22,162.52 194.16,162.55 207.1,162.87 Z"/></g>
</svg>
