<?xml version="1.0" encoding="UTF-8"?>
<!DOCTYPE svg PUBLIC "-//W3C//DTD SVG 1.1//EN" "http://www.w3.org/Graphics/SVG/1.1/DTD/svg11.dtd">
<svg xmlns="http://www.w3.org/2000/svg" version="1.1" width="216px" height="209px" style="shape-rendering:geometricPrecision; text-rendering:geometricPrecision; image-rendering:optimizeQuality; fill-rule:evenodd; clip-rule:evenodd" xmlns:xlink="http://www.w3.org/1999/xlink">
<rect x="0" y="0" width="216" height="209" fill="#282828"/>
<g><path fill="#282828" stroke="#282828" stroke-width="0.5" d="M 0,0 C 72,0 144,0 216,0 C 216,69.67 216,139.33 216,209 C 144,209 72,209 0,209 C 0,139.33 0,69.67 0,0 Z M 27.03,107 C 27.07,108.66 27.89,109.69 29.48,110.11 C 30.41,110.28 31.35,110.41 32.29,110.47 C 62.1,112.09 91.89,113.88 121.67,115.84 C 122.04,116.55 121.86,117.11 121.11,117.52 C 104.06,127.07 87.2,136.93 70.52,147.09 C 68.48,149.44 68.85,151.32 71.64,152.72 C 72.44,152.85 73.22,152.76 73.98,152.44 C 92.87,144.68 111.76,136.91 130.64,129.12 C 131.3,128.81 131.99,128.66 132.72,128.66 C 133.02,129.12 132.97,129.56 132.56,129.99 C 129.95,133.43 127.48,136.98 125.16,140.62 C 116.64,152.36 108.06,164.05 99.41,175.69 C 98.65,178.42 99.68,179.91 102.5,180.15 C 103.15,180.11 103.75,179.91 104.29,179.55 C 110.94,172.95 117.66,166.41 124.45,159.95 C 140.43,143.61 156.56,127.43 172.83,111.39 C 175.62,108.48 175.66,105.53 172.95,102.56 C 151.23,80.94 129.5,59.33 107.76,37.74 C 106.48,36.32 105.06,35.08 103.49,34.03 C 101.14,33.37 99.69,34.19 99.11,36.51 C 99.1,37.38 99.33,38.18 99.8,38.92 C 111.3,54.32 122.61,69.87 133.72,85.54 C 132.9,85.77 132.07,85.68 131.26,85.25 C 111.95,77.28 92.62,69.35 73.28,61.47 C 70.98,61.21 69.62,62.22 69.21,64.5 C 69.33,65.75 69.92,66.7 70.99,67.37 C 84.06,75.03 97.09,82.75 110.08,90.53 C 114.2,92.65 118.25,94.87 122.25,97.19 C 122.63,97.48 122.77,97.86 122.69,98.33 C 91.99,100.13 61.25,101.97 30.49,103.85 C 28.41,103.89 27.25,104.94 27.03,107 Z"/></g>
<g><path fill="#fefefe" stroke="#fefefe" stroke-width="0.5" d="M 27.03,107 C 27.25,104.94 28.41,103.89 30.49,103.85 C 61.25,101.97 91.99,100.13 122.69,98.33 C 122.77,97.86 122.63,97.48 122.25,97.19 C 118.25,94.87 114.2,92.65 110.08,90.53 C 97.09,82.75 84.06,75.03 70.99,67.37 C 68.46,65.07 68.69,63.1 71.69,61.44 C 73.43,61.5 75.09,61.95 76.65,62.78 C 94.86,70.25 113.06,77.74 131.26,85.25 C 132.07,85.68 132.9,85.77 133.72,85.54 C 122.61,69.87 111.3,54.32 99.8,38.92 C 98.98,37.65 98.92,36.35 99.63,35.02 C 100.69,33.89 101.98,33.56 103.49,34.03 C 105.06,35.08 106.48,36.32 107.76,37.74 C 129.5,59.33 151.23,80.94 172.95,102.56 C 175.66,105.53 175.62,108.48 172.83,111.39 C 156.56,127.43 140.43,143.61 124.45,159.95 C 117.66,166.41 110.94,172.95 104.29,179.55 C 102.84,180.37 101.42,180.31 100.03,179.39 C 99.04,178.28 98.84,177.05 99.41,175.69 C 108.06,164.05 116.64,152.36 125.16,140.62 C 127.7,136.75 130.31,132.94 132.98,129.17 C 132.89,129 132.81,128.83 132.72,128.66 C 131.99,128.66 131.3,128.81 130.64,129.12 C 111.76,136.91 92.87,144.68 73.98,152.44 C 71.75,153.24 70.18,152.55 69.28,150.36 C 69.07,149.04 69.49,147.95 70.52,147.09 C 87.2,136.93 104.06,127.07 121.11,117.52 C 121.86,117.11 122.04,116.55 121.67,115.84 C 91.89,113.88 62.1,112.09 32.29,110.47 C 30.77,110.48 29.34,110.13 28.01,109.42 C 27.4,108.73 27.07,107.93 27.03,107 Z"/></g>
</svg>
