<?xml version="1.0" encoding="UTF-8"?>
<!DOCTYPE svg PUBLIC "-//W3C//DTD SVG 1.1//EN" "http://www.w3.org/Graphics/SVG/1.1/DTD/svg11.dtd">
<svg xmlns="http://www.w3.org/2000/svg" version="1.1" width="35px" height="34px" style="shape-rendering:geometricPrecision; text-rendering:geometricPrecision; image-rendering:optimizeQuality; fill-rule:evenodd; clip-rule:evenodd" xmlns:xlink="http://www.w3.org/1999/xlink">
<rect x="0" y="0" width="35" height="34" fill="#ffffff"/>
<g><path fill="#ffffff" stroke="#ffffff" stroke-width="0.5" d="M 0,0 C 11.67,0 23.33,0 35,0 C 35,11.33 35,22.67 35,34 C 23.33,34 11.67,34 0,34 C 0,22.67 0,11.33 0,0 Z M 14.02,18.27 C 14.07,18.37 14.13,18.47 14.19,18.57 C 12.42,20.15 10.78,21.84 9.27,23.64 C 8.9,25.21 8.85,26.79 9.11,28.39 C 9.44,28.86 9.89,29.08 10.47,29.04 C 11.79,29.15 13.09,29.05 14.36,28.73 C 15.74,27.5 17.13,26.3 18.53,25.13 C 18.7,25.26 18.88,25.38 19.05,25.5 C 19.1,26.65 19.32,27.73 19.73,28.76 C 21.28,29.13 22.83,29.14 24.39,28.8 C 25.82,27.64 27.16,26.38 28.43,25.03 C 28.94,24.43 29.33,23.78 29.63,23.05 C 29.75,20.25 29.78,17.46 29.72,14.65 C 29.71,14.16 29.59,13.69 29.37,13.25 C 27.96,11.31 26.31,9.62 24.4,8.18 C 22.84,7.86 21.28,7.88 19.73,8.24 C 19.32,9.27 19.1,10.36 19.06,11.51 C 18.89,11.64 18.71,11.77 18.54,11.89 C 17.07,10.81 15.67,9.63 14.34,8.33 C 12.79,7.9 11.22,7.83 9.62,8.12 C 9.16,8.45 8.94,8.9 8.98,9.48 C 8.86,10.79 8.98,12.08 9.33,13.34 C 10.78,15.08 12.34,16.73 14.02,18.27 Z"/></g>
<g><path fill="#030303" stroke="#030303" stroke-width="0.5" d="M 14.19,18.57 C 15.63,20.07 17.07,21.55 18.52,23.04 C 18.81,23.36 19.17,23.49 19.6,23.45 C 21.13,22.13 22.52,20.68 23.77,19.08 C 23.96,18.6 23.91,18.13 23.62,17.69 C 22.46,16.23 21.1,15.01 19.56,14.01 C 18.96,13.97 18.45,14.16 18,14.56 C 16.8,15.93 15.47,17.17 14.02,18.27 C 12.34,16.73 10.78,15.08 9.33,13.34 C 8.98,12.08 8.86,10.79 8.98,9.48 C 8.94,8.9 9.16,8.45 9.62,8.12 C 11.22,7.83 12.79,7.9 14.34,8.33 C 15.67,9.63 17.07,10.81 18.54,11.89 C 18.71,11.77 18.89,11.64 19.06,11.51 C 19.1,10.36 19.32,9.27 19.73,8.24 C 21.28,7.88 22.84,7.86 24.4,8.18 C 26.31,9.62 27.96,11.31 29.37,13.25 C 29.59,13.69 29.71,14.16 29.72,14.65 C 29.78,17.46 29.75,20.25 29.63,23.05 C 29.33,23.78 28.94,24.43 28.43,25.03 C 27.16,26.38 25.82,27.64 24.39,28.8 C 22.83,29.14 21.28,29.13 19.73,28.76 C 19.32,27.73 19.1,26.65 19.05,25.5 C 18.88,25.38 18.7,25.26 18.53,25.13 C 17.13,26.3 15.74,27.5 14.36,28.73 C 13.09,29.05 11.79,29.15 10.47,29.04 C 9.89,29.08 9.44,28.86 9.11,28.39 C 8.85,26.79 8.9,25.21 9.27,23.64 C 10.78,21.84 12.42,20.15 14.19,18.57 Z"/></g>
<g><path fill="#fafafa" stroke="#fafafa" stroke-width="0.5" d="M 14.19,18.57 C 14.13,18.47 14.07,18.37 14.02,18.27 C 15.47,17.17 16.8,15.93 18,14.56 C 18.45,14.16 18.96,13.97 19.56,14.01 C 21.1,15.01 22.46,16.23 23.62,17.69 C 23.91,18.13 23.96,18.6 23.77,19.08 C 22.52,20.68 21.13,22.13 19.6,23.45 C 19.17,23.49 18.81,23.36 18.52,23.04 C 17.07,21.55 15.63,20.07 14.19,18.57 Z"/></g>
</svg>
