<?xml version="1.0" encoding="UTF-8"?>
<!DOCTYPE svg PUBLIC "-//W3C//DTD SVG 1.1//EN" "http://www.w3.org/Graphics/SVG/1.1/DTD/svg11.dtd">
<svg xmlns="http://www.w3.org/2000/svg" version="1.1" width="73px" height="55px" style="shape-rendering:geometricPrecision; text-rendering:geometricPrecision; image-rendering:optimizeQuality; fill-rule:evenodd; clip-rule:evenodd" xmlns:xlink="http://www.w3.org/1999/xlink">
<rect x="0" y="0" width="73" height="55" fill="#1f1f1f"/>
<g><path fill="#1f1f1f" stroke="#1f1f1f" stroke-width="0.5" d="M 0,0 C 24.33,0 48.67,0 73,0 C 73,18.33 73,36.67 73,55 C 48.67,55 24.33,55 0,55 C 0,36.67 0,18.33 0,0 Z M 36.25,18.93 C 36.99,22.25 39.08,23.68 42.52,23.23 C 46.46,22.66 47.87,20.46 46.77,16.62 C 45.53,14.73 43.78,13.87 41.5,14.05 C 38.35,14.22 36.6,15.84 36.25,18.93 Z M 6.99,18 C 7,24.84 7,31.68 7,38.52 C 6.93,39.36 7.2,40.04 7.84,40.56 C 10.37,40.71 12.91,40.77 15.46,40.72 C 15.98,40.78 16.42,40.63 16.78,40.27 C 17.07,37.37 17.18,34.45 17.13,31.52 C 17.18,30.65 17.64,30.24 18.5,30.28 C 21.39,30.94 23.06,32.75 23.51,35.72 C 23.72,36.97 23.88,38.23 23.97,39.5 C 24.01,40.03 24.27,40.42 24.74,40.65 C 27.29,40.72 29.84,40.74 32.4,40.68 C 32.9,40.71 33.32,40.54 33.68,40.19 C 34.01,39.02 34.06,37.84 33.82,36.63 C 33.32,33.02 31.73,29.99 29.05,27.55 C 27.82,26.57 26.48,25.85 25.03,25.36 C 25.38,24.95 25.83,24.77 26.4,24.81 C 28.07,24.86 29.74,24.84 31.41,24.76 C 31.88,24.7 32.22,24.46 32.45,24.06 C 32.74,21.3 32.8,18.52 32.65,15.74 C 32.43,15.25 32.05,14.99 31.51,14.95 C 28.6,14.72 25.86,15.28 23.28,16.64 C 22.27,17.29 21.38,18.07 20.6,18.98 C 19.46,20.55 18.47,22.19 17.63,23.92 C 17.27,23.55 17.1,23.11 17.09,22.58 C 17.07,20.54 17.07,18.5 17.09,16.46 C 17.13,15.86 16.91,15.38 16.43,15.02 C 13.49,14.74 10.55,14.76 7.61,15.06 C 7,15.94 6.79,16.92 6.99,18 Z M 49.71,15.9 C 49.73,18.06 50.49,19.92 51.98,21.47 C 53.8,22.66 55.7,23.68 57.69,24.52 C 55.64,24.73 53.57,24.85 51.48,24.89 C 50.91,24.92 50.5,25.19 50.24,25.68 C 49.81,29.23 50.15,32.7 51.28,36.08 C 52.96,38.75 55.38,40.33 58.53,40.82 C 60.71,41.1 62.88,41.05 65.05,40.66 C 66.31,40.35 67.46,39.82 68.5,39.06 C 68.91,36.9 69.04,34.71 68.9,32.49 C 68.94,31.97 68.75,31.56 68.32,31.27 C 66.72,31.59 65.11,31.89 63.49,32.14 C 61.52,32.32 60.48,31.42 60.38,29.45 C 60.3,28.49 60.28,27.52 60.29,26.55 C 60.24,26.03 60.38,25.59 60.74,25.21 C 62.57,24.87 64.42,24.71 66.3,24.74 C 66.47,24.6 66.63,24.45 66.8,24.31 C 67,23.38 67.08,22.44 67.04,21.48 C 67.09,20.87 66.89,20.36 66.45,19.95 C 64.63,19.77 62.8,19.59 60.98,19.42 C 60.62,19.16 60.43,18.81 60.4,18.36 C 60.4,17.4 60.3,16.45 60.09,15.51 C 59.89,15.33 59.69,15.15 59.49,14.97 C 56.49,14.77 53.49,14.78 50.5,15 C 50.07,15.17 49.81,15.47 49.71,15.9 Z M 36.82,38 C 36.65,39.08 36.95,39.96 37.74,40.65 C 39.98,40.72 42.23,40.73 44.47,40.71 C 46.12,40.87 46.94,40.14 46.94,38.52 C 46.93,34.51 46.94,30.5 46.95,26.49 C 47.01,25.92 46.82,25.44 46.38,25.06 C 43.75,24.82 41.11,24.73 38.45,24.81 C 37.83,24.79 37.34,25.04 37,25.55 C 36.83,29.69 36.77,33.84 36.82,38 Z"/></g>
<g><path fill="#f8f6f3" stroke="#f8f6f3" stroke-width="0.5" d="M 36.25,18.93 C 36.6,15.84 38.35,14.22 41.5,14.05 C 45.86,14.04 47.66,16.17 46.89,20.42 C 46,22.24 44.55,23.17 42.52,23.23 C 39.08,23.68 36.99,22.25 36.25,18.93 Z M 6.99,18 C 6.79,16.92 7,15.94 7.61,15.06 C 10.55,14.76 13.49,14.74 16.43,15.02 C 16.91,15.38 17.13,15.86 17.09,16.46 C 17.07,18.5 17.07,20.54 17.09,22.58 C 17.1,23.11 17.27,23.55 17.63,23.92 C 18.47,22.19 19.46,20.55 20.6,18.98 C 22.44,16.79 24.77,15.5 27.61,15.11 C 28.9,14.91 30.2,14.85 31.51,14.95 C 32.05,14.99 32.43,15.25 32.65,15.74 C 32.8,18.52 32.74,21.3 32.45,24.06 C 32.22,24.46 31.88,24.7 31.41,24.76 C 29.74,24.84 28.07,24.86 26.4,24.81 C 25.83,24.77 25.38,24.95 25.03,25.36 C 26.48,25.85 27.82,26.57 29.05,27.55 C 31.73,29.99 33.32,33.02 33.82,36.63 C 34.06,37.84 34.01,39.02 33.68,40.19 C 33.32,40.54 32.9,40.71 32.4,40.68 C 29.84,40.74 27.29,40.72 24.74,40.65 C 24.27,40.42 24.01,40.03 23.97,39.5 C 23.99,36.97 23.38,34.61 22.14,32.42 C 21.01,31.02 19.55,30.32 17.76,30.33 C 17.34,30.61 17.13,31.01 17.13,31.52 C 17.18,34.45 17.07,37.37 16.78,40.27 C 16.42,40.63 15.98,40.78 15.46,40.72 C 12.91,40.77 10.37,40.71 7.84,40.56 C 7.2,40.04 6.93,39.36 7,38.52 C 7,31.68 7,24.84 6.99,18 Z M 49.71,15.9 C 50.03,15.16 50.61,14.8 51.44,14.82 C 54.13,14.78 56.81,14.83 59.49,14.97 C 59.69,15.15 59.89,15.33 60.09,15.51 C 60.3,16.45 60.4,17.4 60.4,18.36 C 60.43,18.81 60.62,19.16 60.98,19.42 C 62.8,19.59 64.63,19.77 66.45,19.95 C 66.89,20.36 67.09,20.87 67.04,21.48 C 67.08,22.44 67,23.38 66.8,24.31 C 66.63,24.45 66.47,24.6 66.3,24.74 C 64.42,24.71 62.57,24.87 60.74,25.21 C 60.38,25.59 60.24,26.03 60.29,26.55 C 60.19,28.04 60.33,29.5 60.74,30.94 C 61.39,31.88 62.31,32.28 63.49,32.14 C 65.11,31.89 66.72,31.59 68.32,31.27 C 68.75,31.56 68.94,31.97 68.9,32.49 C 69.04,34.71 68.91,36.9 68.5,39.06 C 67.46,39.82 66.31,40.35 65.05,40.66 C 60.45,41.76 56.31,40.85 52.61,37.96 C 51.36,36.55 50.62,34.91 50.4,33.03 C 50.11,30.58 50.06,28.14 50.24,25.68 C 50.5,25.19 50.91,24.92 51.48,24.89 C 53.57,24.85 55.64,24.73 57.69,24.52 C 55.7,23.68 53.8,22.66 51.98,21.47 C 50.49,19.92 49.73,18.06 49.71,15.9 Z M 36.82,38 C 36.77,33.84 36.83,29.69 37,25.55 C 37.34,25.04 37.83,24.79 38.45,24.81 C 41.11,24.73 43.75,24.82 46.38,25.06 C 46.82,25.44 47.01,25.92 46.95,26.49 C 46.94,30.5 46.93,34.51 46.94,38.52 C 46.94,40.14 46.12,40.87 44.47,40.71 C 42.23,40.73 39.98,40.72 37.74,40.65 C 36.95,39.96 36.65,39.08 36.82,38 Z"/></g>
</svg>
